<?xml version="1.0" encoding="utf-8"?>
<!-- Generator: Adobe Illustrator 19.0.0, SVG Export Plug-In . SVG Version: 6.00 Build 0)  -->
<svg version="1.1" xmlns="http://www.w3.org/2000/svg" xmlns:xlink="http://www.w3.org/1999/xlink" x="0px" y="0px"
	 viewBox="0 0 960 560" style="enable-background:new 0 0 960 560;" xml:space="preserve">
<style type="text/css">
	.st0{fill:#FCFCFC;}
	.st1{fill:#BDCCD4;}
	.st2{fill:#03002D;}
</style>
<g id="Layer_2">
</g>
<g id="Layer_1">
	<path class="st0" d="M1418,31.6c-196.7,95.1-368.9,147.9-492,178.5c-249.1,61.9-521.1,126-822,27c-99.7-32.8-176.2-74.8-225-105
		c32.5,166.5,65,333,97.5,499.5c84,7.5,895-45.5,1216.4-79.5C1268.1,378.6,1343,205.1,1418,31.6z"/>
	<path class="st1" d="M463,136"/>
	<path class="st2" d="M1223,372"/>
	<path class="st0" d="M1223,284c0,0,192,42,267,23s-103-15-107-21s70-7,70-7S1275,270,1223,284z"/>
	<path class="st0" d="M380.1,628.6"/>
</g>
</svg>
