<?xml version="1.0" encoding="utf-8"?>
<!-- Generator: Adobe Illustrator 19.0.0, SVG Export Plug-In . SVG Version: 6.00 Build 0)  -->
<svg version="1.1" id="Layer_1" xmlns="http://www.w3.org/2000/svg" xmlns:xlink="http://www.w3.org/1999/xlink" x="0px" y="0px"
	 viewBox="0 0 960 560" style="enable-background:new 0 0 960 560;" xml:space="preserve">
<style type="text/css">
	.st0{fill:#FCFCFC;}
	.st1{fill:#BDCCD4;}
	.st2{fill:#03002D;}
</style>
<g id="Layer_2">
</g>
<g id="Layer_1_1_">
	<path class="st0" d="M1002.6,79.9C968.1,116.1,914.3,166,840,212.4C821.1,224.1,421.6,460,97.4,279.8C23.5,238.7-24,183.7-50.5,148
		c13.3,70.6,24,154,26.6,247.7c2.2,80.7-2,153.7-9.1,217.3c168-9.6,336.1-15.8,504.3-18.5C682.1,591,893,592.8,1104,600
		c90.8-89.7,123.6-220,83.7-333.5C1142,136.5,1021.5,87.3,1002.6,79.9z"/>
	<path class="st1" d="M412.2,181.2"/>
	<path class="st2" d="M1184.6,373"/>
	<path class="st0" d="M1179.5,285.1c0,0,194.1,30.9,267.9,7.6s-103.7-9-108-14.8s69.5-11,69.5-11S1230.6,268.2,1179.5,285.1z"/>
	<path class="st0" d="M357.9,677.8"/>
</g>
</svg>
