<?xml version="1.0" encoding="utf-8"?>
<!-- Generator: Adobe Illustrator 19.0.0, SVG Export Plug-In . SVG Version: 6.00 Build 0)  -->
<svg version="1.1" xmlns="http://www.w3.org/2000/svg" xmlns:xlink="http://www.w3.org/1999/xlink" x="0px" y="0px"
	 viewBox="0 0 600 250" style="enable-background:new 0 0 600 250;" xml:space="preserve">
<style type="text/css">
	.st0{fill:none;stroke:#000000;stroke-width:2;stroke-miterlimit:10;}
	.st1{fill:none;stroke:#000000;stroke-width:6;stroke-miterlimit:10;}
	.st2{fill:none;}
	.st3{font-family:'BerlinSansFBDemi-Bold';}
	.st4{font-size:72px;}
	.st5{font-family:'CopperplateGothic-Light';}
	.st6{font-size:48px;}
	.st7{letter-spacing:2;}
</style>
<g id="Layer_1">
	<g id="XMLID_1_">
		<g id="XMLID_79_">
			<path id="XMLID_3_" d="M81.8,207.2c5.5-0.1,11.1-0.2,16.6-0.1c0-1,0-2,0-3c-6.2,0-12.3,0-18.5,0c0,1,0,2,0,3
				c3.5-0.4,7-0.4,10.6-0.2c1.9,0.1,1.9-2.9,0-3c-3.6-0.2-7.1-0.2-10.6,0.2c-1.9,0.2-2,3,0,3c6.2,0,12.3,0,18.5,0c1.9,0,1.9-3,0-3
				c-5.5-0.1-11.1,0-16.6,0.1C79.9,204.3,79.9,207.3,81.8,207.2L81.8,207.2z"/>
		</g>
	</g>
	<g id="XMLID_2_">
		<g id="XMLID_73_">
			<path id="XMLID_11_" d="M91.6,204.6C85.8,137.4,75.1,70.8,59.4,5.2C59,3.4,56.1,4.2,56.6,6c15.6,65.3,26.3,131.7,32,198.5
				C88.7,206.5,91.7,206.5,91.6,204.6L91.6,204.6z"/>
		</g>
	</g>
	<g id="XMLID_4_">
		<g id="XMLID_67_">
			<path id="XMLID_12_" d="M90.9,204.5c0.9-30.8,1.9-61.9,7.5-92.3c2.7-14.5,6.4-29,11.7-42.8c5.1-13.4,12.2-26.4,23.8-35.2
				c1.5-1.2,0-3.8-1.5-2.6c-22.8,17.3-30.9,49.4-36.2,76.1c-6.3,31.8-7.3,64.3-8.3,96.7C87.8,206.5,90.8,206.5,90.9,204.5
				L90.9,204.5z"/>
		</g>
	</g>
	<g id="XMLID_10_">
		<g id="XMLID_61_">
			<path id="XMLID_13_" d="M33.7,43.2c27.8,49.7,42.5,105.2,54.5,160.5c0.4,1.9,3.3,1.1,2.9-0.8C79,147.3,64.2,91.6,36.3,41.7
				C35.3,40,32.7,41.5,33.7,43.2L33.7,43.2z"/>
		</g>
	</g>
	<g id="XMLID_6_">
		<g id="XMLID_55_">
			<path id="XMLID_14_" d="M52.1,65.7c-2.8-6.6-6-13-9.5-19.3c-2.8-5-10.6-0.5-7.8,4.5c3.5,6.2,6.7,12.7,9.5,19.2
				C46.5,75.6,54.3,71,52.1,65.7L52.1,65.7z"/>
		</g>
	</g>
	<g id="XMLID_7_">
		<g id="XMLID_49_">
			<path id="XMLID_15_" d="M69.3,35.7c-1.6-8-3.6-15.9-5.2-23.8c-1.1-5.7-9.8-3.3-8.7,2.4c1.6,8,3.5,15.9,5.2,23.8
				C61.7,43.8,70.4,41.4,69.3,35.7L69.3,35.7z"/>
		</g>
	</g>
	<g id="XMLID_9_">
		<g id="XMLID_54_">
			<path id="XMLID_45_" d="M118.1,58c3.1-6.6,7.3-12.5,12.7-17.4c4.3-3.9-2.1-10.3-6.4-6.4c-5.9,5.4-10.7,12-14.1,19.2
				C107.9,58.7,115.7,63.3,118.1,58L118.1,58z"/>
		</g>
	</g>
	<g id="XMLID_18_">
		<path id="XMLID_32_" d="M87.5,205.3l-0.1-1.1l-0.1-1.1c0-0.7,0-1.5,0-2.2c0-1.5,0.1-3,0.2-4.5c0.1-0.7,0.1-1.5,0.2-2.2l0.1-0.6
			l0.1-0.5L88,192c0.1-0.7,0.3-1.5,0.4-2.3l0.5-2.2c0.7-2.9,1.6-5.6,2.6-8.4c0.5-1.4,1-2.7,1.6-4l0.9-2l0.4-1l0.2-0.5l0.1-0.3
			l0.1-0.1c0,0,0,0,0,0l0.1-0.2l8.1-16.5c2.7-5.5,5.5-10.9,8.5-16.3c0.8-1.3,1.5-2.7,2.3-4c0.8-1.3,1.6-2.6,2.4-3.9
			c0.8-1.3,1.7-2.6,2.6-3.8c0.9-1.3,1.8-2.5,2.8-3.7c3.8-4.8,7.9-9.4,12.3-13.7c-4.1,4.5-7.9,9.3-11.4,14.3
			c-0.9,1.2-1.7,2.5-2.5,3.8c-0.8,1.3-1.6,2.6-2.3,3.9c-0.7,1.3-1.5,2.7-2.2,4c-0.7,1.3-1.4,2.7-2,4.1c-2.6,5.5-5.1,11.1-7.5,16.7
			l-7.2,16.9l0.1-0.2l-0.8,2.1l-0.7,2c-0.5,1.3-0.9,2.6-1.3,3.9c-0.4,1.3-0.8,2.7-1.1,4c-0.3,1.3-0.6,2.7-0.9,4l-0.3,2l-0.2,1.9
			l-0.1,1.1l0,0.5l0,0.4c0,0.7-0.1,1.3-0.1,2c0,1.3,0,2.7,0.1,4c0,0.7,0.1,1.3,0.1,2l0.1,1l0.1,1L87.5,205.3z"/>
	</g>
	<g id="XMLID_26_">
		<path id="XMLID_29_" d="M85.4,206.1c0,0-0.1-0.5-0.4-1.6c-0.3-1-0.7-2.5-1.2-4.4c-1.1-3.8-2.7-9.1-4.9-15.5
			c-2.2-6.3-5.1-13.7-8.5-21.4c-3.4-7.7-7.5-15.7-12-23.5c-4.5-7.8-9.4-15.4-14.3-22.2c-4.9-6.9-9.9-13.1-14.3-18.2
			c-4.4-5.2-8.3-9.3-11-12.1c-2.8-2.8-4.4-4.4-4.4-4.4s1.7,1.5,4.6,4.2c2.9,2.7,6.9,6.7,11.5,11.7c4.6,5,9.8,11,15.1,17.7
			c5.3,6.7,10.5,14.1,15.4,21.8c4.9,7.7,9.3,15.6,13.2,23.3c3.8,7.6,7,15,9.6,21.3c2.5,6.4,4.4,11.8,5.7,15.6
			c0.6,1.9,1.1,3.4,1.4,4.4c0.3,1,0.5,1.6,0.5,1.6L85.4,206.1z"/>
	</g>
	<g id="XMLID_27_">
		<path id="XMLID_25_" d="M86.2,199.7c0,0,2.7-4.1,6.7-10.2c2-3.1,4.4-6.6,6.9-10.5c1.3-1.9,2.6-3.9,3.9-5.9c1.3-2,2.7-4,4-6.1
			c2.7-4.1,5.5-8.1,8.3-11.8c1.4-1.8,2.8-3.6,4.5-5.1c0.2-0.2,0.4-0.4,0.7-0.5c0.2-0.2,0.5-0.3,0.7-0.4c0.3-0.1,0.5-0.2,0.8-0.3
			c0.3,0,0.6-0.1,0.9-0.1l0.2,0l0.1,0l0.1,0l0,0c0,0,0.2,0.1,0.1,0l0.3,0.2c0.2,0.1,0.5,0.4,0.7,0.6c0.4,0.4,0.6,0.9,0.8,1.3
			c0.7,1.8,0.8,3.5,1,5c0.1,1.5,0.1,2.8,0.1,3.9c0,2.1-0.1,3.4-0.1,3.4s0-1.2-0.1-3.4c-0.1-1.1-0.2-2.4-0.4-3.8
			c-0.2-1.4-0.5-3.1-1.3-4.7c-0.2-0.4-0.4-0.7-0.7-1l-0.2-0.1c-0.1,0-0.1-0.1-0.2-0.1l-0.3-0.1c-0.1,0,0.1,0,0.1,0h0h0l-0.1,0
			l-0.1,0c-0.7,0-1.5,0.5-2.2,1.2c-1.4,1.4-2.6,3.2-3.9,5.1c-2.5,3.8-4.9,8.1-7.3,12.3c-1.2,2.1-2.4,4.3-3.5,6.4
			c-1.2,2.1-2.3,4.2-3.4,6.2c-2.2,4-4.3,7.7-6.1,11c-3.6,6.4-5.9,10.7-5.9,10.7L86.2,199.7z"/>
	</g>
	<g id="XMLID_31_">
		<path id="XMLID_23_" d="M85.8,204.7c0,0-0.7-1.1-1.9-2.9c-1.2-1.8-3-4.5-5.2-7.6c-2.2-3.1-4.8-6.7-7.6-10.5
			c-2.9-3.8-5.9-7.9-9.2-11.6c-1.7-1.8-3.4-3.6-5.3-4.9c-1-0.6-2-1.1-3-1.3c-0.3-0.1-0.5-0.1-0.8-0.1l-0.4,0l-0.4,0
			c-0.3,0-0.6,0-0.9,0c-0.3,0-0.5,0-0.8,0.1c-2.2,0.2-4.3,1.1-6.1,2.1c-1.8,1.1-3.3,2.5-4.4,4c-2.3,3-3.1,6.2-3.3,8.3
			c-0.1,1.1-0.1,2-0.1,2.6c0,0.6,0.1,0.9,0.1,0.9s-0.1-0.3-0.1-0.9c-0.1-0.6-0.1-1.5-0.1-2.6c0-1.1,0.2-2.5,0.6-4
			c0.4-1.5,1.1-3.2,2.2-4.8c1.1-1.7,2.6-3.2,4.4-4.6c1.9-1.3,4.1-2.4,6.6-2.9c0.3-0.1,0.6-0.1,1-0.1c0.3,0,0.7-0.1,1-0.1l0.5,0
			l0.5,0c0.3,0,0.7,0,1,0.1c1.4,0.2,2.7,0.7,3.9,1.3c2.4,1.3,4.4,3.1,6.3,4.9c1.9,1.8,3.6,3.7,5.4,5.6c1.7,1.9,3.3,3.7,4.9,5.5
			c3.2,3.6,6,7.1,8.5,10.1c2.4,3,4.4,5.5,5.8,7.3c1.4,1.8,2.2,2.8,2.2,2.8L85.8,204.7z"/>
	</g>
	<g id="XMLID_34_">
		<path id="XMLID_20_" d="M83,205.2c0,0,0.1-2.3,0.2-6.2c0.1-4,0.3-9.6,0.6-16.4c0.6-13.6,1.6-31.6,3.2-49.6c0.8-9,1.6-18,2.5-26.4
			c0.4-4.2,1-8.3,1.5-12.1c0.5-3.8,1-7.5,1.4-10.8c1.7-13.4,2.9-22.4,2.9-22.4s-0.8,9-2,22.5c-0.3,3.4-0.6,7-1,10.9
			c-0.3,3.9-0.7,7.9-1,12.1c-0.6,8.4-1.1,17.4-1.4,26.4c-0.8,18-1.1,36-1.1,49.5c0,6.8,0.1,12.4,0.1,16.3c0.1,3.9,0.1,6.2,0.1,6.2
			L83,205.2z"/>
	</g>
	<g id="XMLID_35_">
		<path id="XMLID_17_" d="M84.3,201.7c0,0,1.2-5.9,3.3-14.7c2-8.8,4.8-20.5,7.9-32.2c3.1-11.6,6.6-23.2,9.8-31.6
			c1.6-4.2,3.2-7.7,4.7-9.9c0.7-1.1,1.4-1.9,1.9-2.4c0.5-0.5,0.9-0.6,0.8-0.7c0,0-0.3,0.2-0.8,0.7c-0.5,0.5-1.1,1.3-1.7,2.5
			c-1.3,2.3-2.6,5.8-4,10.1c-2.7,8.6-5.4,20.3-7.8,32c-2.4,11.8-4.4,23.6-5.9,32.5c-1.5,8.9-2.3,14.8-2.3,14.8L84.3,201.7z"/>
	</g>
	<path id="XMLID_8_" class="st0" d="M40.5,203.5c17-4,34-8,51-12c15.5,3.2,31,6.3,46.5,9.5c-15.5,12.7-31,25.3-46.5,38
		C74.5,227.2,57.5,215.3,40.5,203.5z"/>
	<path id="XMLID_38_" class="st1" d="M121,275.5"/>
</g>
<g id="Layer_2">
	<rect id="XMLID_42_" x="151.3" y="75.6" class="st2" width="395.2" height="121.5"/>
	<text id="XMLID_5_" transform="matrix(1 0 0 1 151.3484 126.3251)" class="st3 st4">Minnetonka</text>
	<rect id="XMLID_40_" x="164.1" y="159.9" class="st2" width="383.5" height="44.9"/>
	<text id="XMLID_21_" transform="matrix(1 0 0 1 164.0984 186.1494)" class="st5 st6 st7">Web  Designs</text>
</g>
</svg>
